<svg width="1440" height="498" viewBox="0 0 1440 498" fill="none" xmlns="http://www.w3.org/2000/svg">
<path d="M43.5 63.5C39.5 33.9 11.5 43.8334 -2 52.5V0H1440V25.9349C1440.34 26.5142 1440.29 27.052 1440 27.5V25.9349C1438.58 23.4972 1430.36 20.3232 1404.5 20C1364.5 19.5 1356 46.5 1351.5 61C1347 75.5 1336 70 1318 97.5C1300 125 1314.5 139 1308 160.5C1302.8 177.7 1308.17 218 1311.5 236C1311.83 253.167 1309.1 284.6 1295.5 273C1278.5 258.5 1292.5 226 1295.5 212C1298.5 198 1296 199.5 1290 119.5C1284 39.5 1265 46.5 1254 43.5C1243 40.5 1247 39 1224 64C1201 89 1220 124 1224 157.5C1228 191 1220 186 1214.5 226C1210.1 258 1216.33 276.333 1220 281.5C1220.67 309.167 1222.1 368.1 1222.5 382.5C1223 400.5 1243 431 1245.5 456.5C1248 482 1240.5 498.5 1218 497C1195.5 495.5 1196.5 476.5 1195.5 460C1194.5 443.5 1207 403.5 1209.5 386.5C1211.5 372.9 1208.67 354.5 1207 347C1200.67 325.667 1188.9 278.8 1192.5 262C1197 241 1200.5 215 1195 194.5C1189.5 174 1196.5 146.5 1197.5 132C1198.5 117.5 1200 89.5 1179.5 86.5C1159 83.5 1151.5 97 1143.5 103.5C1135.5 110 1144.5 148.5 1149.5 183C1154.5 217.5 1146.5 226.5 1140.5 226C1134.5 225.5 1126 225.5 1128.5 199.5C1131 173.5 1130.5 129.5 1118 89.5C1105.5 49.5 1091.5 69.5 1076.5 64C1061.5 58.5 1048.5 99.5 1036.5 91.5C1024.5 83.5 1023.5 135.5 1024 164C1024.5 192.5 1034.5 203.5 1016 203.5C1005 203.5 1009.5 184 1011 140C1012.5 96 994.5 104.5 979 91.5C963.5 78.5 953.5 127 943 135.5C932.5 144 914.5 128 901 122C887.5 116 890.5 167.5 889.5 198.5C888.5 229.5 898.5 268 898.5 290C898.5 312 898.5 326.5 895.5 353C892.5 379.5 898 407 898.5 384C899 361 901.5 438.5 880 438C858.5 437.5 860 434.5 857.5 411C855 387.5 874.5 352 871 347C867.5 342 871 287.5 871 271.5C871 255.5 866 220 864.5 203.5C863 187 848 187.5 839.5 171C831 154.5 836 121.5 817 114C798 106.5 786.5 151.5 784.5 162C782.5 172.5 781 201 775 201.5C769 202 768 190.5 765.5 185C763 179.5 761 147.5 755.5 140.5C750 133.5 744 166 745.5 187.5C747 209 752.5 248.5 753.5 261C754.5 273.5 750 309 735 307.5C720 306 717 285 717.5 256C718 227 729 194 728 171C727 148 716 133 701 111.5C686 90 685.5 69.5 654.5 59C623.5 48.5 614.5 77.5 615.5 92.5C616.5 107.5 623.5 138 611 142.5C598.5 147 603.5 105.5 605.5 92.5C607.5 79.5 607.5 81.5 593 74C578.5 66.5 574 98.5 570.5 111.5C567 124.5 565.5 157 563.5 182C561.5 207 565.5 210.5 568 226.5C570 239.3 567.167 260.833 565.5 270C570 291 574.2 332.9 555 332.5C531 332 538.5 297.5 547 275.5C555.5 253.5 549.5 190.5 551.5 171C553.5 151.5 549.5 138.5 545.5 103.5C541.521 68.6834 526.657 62.5637 509.767 55.6099L509.5 55.5C492.5 48.5 484.5 69 477 76C469.5 83 471.5 71.5 461 65.5C452.6 60.7 449.833 74.1667 449.5 81.5C450 92.8334 449.3 116.7 442.5 121.5C434 127.5 439 141.5 438 161C437.2 176.6 444 232.167 447.5 258C448 268.833 445.9 290.5 433.5 290.5C418 290.5 419 257 419 240.5C419 224 423.5 185.5 427 165.5C430.5 145.5 422.5 140 419 125.5C415.5 111 417.5 106 416.5 92.5C415.5 79 404.5 86.5 395 74.5C385.5 62.5 383 66 368.5 76C354 86 356.5 95.5 358.5 129C360.5 162.5 363.5 170.5 351.5 174C339.5 177.5 345 143.5 346.5 129C348 114.5 342.5 74 336 50C330.8 30.8 309.167 33 299 36.5C291.833 42.1667 276 57.6 270 74C262.5 94.5 251 153 263.5 179C275.918 204.829 266.624 236.581 260.618 257.095L260.5 257.5C254.5 278 272 314.5 272 318.5C272 322.5 277 342.5 272 345.5C268 347.9 276.333 380.167 281 396C284.167 410.5 285.6 439.6 266 440C246.4 440.4 246.833 410.833 249.5 396C252 378.667 256.9 338.9 256.5 318.5C256.1 298.1 248.667 270.667 245 259.5C242.167 253.5 236.5 237.3 236.5 220.5C236.5 199.5 240 172 241.5 157.5C242.7 145.9 234 125.667 229.5 117C226 108.833 215.8 92.3 203 91.5C187 90.5 186.5 117 181 124.5C175.5 132 174.5 129 162.5 133.5C152.9 137.1 160.5 199.667 165.5 230.5C165.5 234.667 163.3 243.4 154.5 245C145.7 246.6 143.833 232.333 144 225C144.833 215.333 146.7 189.1 147.5 161.5C148.3 133.9 138.5 110.333 133.5 102C122.833 85.5 96.8 54.7 78 63.5C54.5 74.5 69.5 127.5 70.5 152C71.5 176.5 43.5 165.5 43.5 157.5C43.5 149.722 48.5 100.5 43.5 63.5Z" fill="url(#paint0_linear_28_109)"/>
<defs>
<linearGradient id="paint0_linear_28_109" x1="719.117" y1="0" x2="719.117" y2="497.094" gradientUnits="userSpaceOnUse">
<stop stop-color="#B01926"/>
<stop offset="0.290625" stop-color="#99242E" stop-opacity="0.709375"/>
<stop offset="1" stop-opacity="0"/>
</linearGradient>
</defs>
</svg>
